<?xml version="1.0" encoding="utf-8"?>
<!-- Generator: Adobe Illustrator 19.2.1, SVG Export Plug-In . SVG Version: 6.00 Build 0)  -->
<svg version="1.1" id="Layer_1" xmlns="http://www.w3.org/2000/svg" xmlns:xlink="http://www.w3.org/1999/xlink" x="0px" y="0px"
	 viewBox="0 0 325.6 189" style="enable-background:new 0 0 325.6 189;" xml:space="preserve">
<style type="text/css">
	.st0{display:none;}
	.st1{display:inline;fill:#ED6A56;}
	.st2{display:inline;}
	.st3{fill:#FFFFFF;}
	.st4{fill:#D6562B;}
	.st5{display:inline;fill:#F09B36;}
	.st6{display:inline;fill:#F4BB3A;}
	.st7{display:inline;fill:#00AAAD;}
	.st8{display:inline;fill:#5BC9E1;}
	.st9{display:inline;fill:#B2D235;}
</style>
<g class="st0">
	<rect x="19" y="-269.1" class="st1" width="557.3" height="284.9"/>
	<g class="st2">
		<path class="st3" d="M501.5-169l-1.7-1.1c-4.4-2.8-16.7-8.5-20-10.1c-3.5-1.6-6.6-1-8.9,0.7c-2.8,2.1-4.3,5.9-4.3,9.8
			c0,1.2,0.2,1.7,0.2,5.1c-0.1,1.6,0,3.1-0.1,4.7c-0.2,2.1,0,3.9,0.3,5.6c0.2,1,0.3,1.9,0.2,2.6c0.1,1.4,0.2,2.6,0.4,3.7l0.1,0.6
			l-0.1,1.1c0,1.2,0.4,2.5,1.2,3.5c1.1,1.4,2.6,2.3,4.5,2.2c1.2,0,2.4-0.5,3.4-1.2c1.4-1.1,6.2-4.8,7.1-3c0.8,1.7,2.2,4.8,4.2,9.5
			c2.1,4.9,3.9,9.1,5.6,12.4c1.6,3.1,2.5,5.2,2.9,6.5c1,3,3.3,7,5.8,9.5c0.7,0.7,1.4,1.3,2.1,1.7l1.2,0.7c1.4,0.7,2.7,0.9,4.3,0.5
			c1-0.3,1.8-0.8,2.5-1.4c1.4-1.4,2.1-3.5,1.5-5.5c-0.3-1-0.8-1.8-1.4-2.5c-0.3-0.3-0.8-0.6-1.2-0.9l-1-0.6
			c-0.3-0.3-0.6-0.8-1.1-1.5c-0.8-1.4-1.5-2.5-1.8-3.5c-0.6-1.8-1.8-4.5-3.6-8l-0.4-0.9c0.5-0.1,1.1-0.3,1.5-0.6
			c0.4-0.3,0.8-0.5,1-0.8c1.8-1.8,2.3-4.7,1-6.9l-0.6-1c-0.4-0.8-0.9-1.6-1.4-2.2c-0.3-0.5-0.8-1-1.3-1.9c-0.6-1-7.6-9.6-7.6-9.6
			s4-2.6,5.9-4c1.9-1.4,2.7-4,1.9-6.3c0.8-1.9,0.5-4.2-0.7-5.7C502.5-168.2,502.1-168.6,501.5-169z"/>
		<g>
			<path class="st3" d="M249.7-28.7c-10.1,0-16.7-8.6-16.7-21.9c0-13.8,6.7-22.7,16.9-22.7c8.4,0,13.8,5.4,14.8,14.5h-4.5
				c-1.1-6.6-4.7-10.2-10.3-10.2c-7.6,0-12.4,7-12.4,18s4.6,18,11.9,18c6,0,10.1-4.4,11-12h4.4C263.8-35.4,258.4-28.7,249.7-28.7z"
				/>
			<path class="st3" d="M287.5-28.6c-10,0-16.6-8.6-16.6-22c0-13.4,6.8-22.7,16.5-22.7c10.7,0,15.9,10.3,15.9,22v1.5h-27.9
				c0,8.9,3.5,17,12.2,17c5.8,0,9.6-3.8,11-11.1h4.3C301.4-34.5,296-28.6,287.5-28.6z M287.3-69c-7.9,0-11,7.1-11.9,15h23.5
				C298.4-63.3,294-69,287.3-69z"/>
			<path class="st3" d="M315.3-64c2.6-6.2,6.9-9.3,12.9-9.3c9.8,0,16.3,8.9,16.3,22.5c0,13.4-6.5,22.2-16.2,22.2
				c-5.8,0-10.3-3-12.8-9.1v23.5h-4.3v-57.9h4V-64z M315.5-50.9c0,11.1,4.8,17.9,12.4,17.9c7.4,0,12.2-7,12.2-17.9
				c0-11.1-4.8-18.2-12.4-18.2C320.1-69,315.5-62.2,315.5-50.9z"/>
			<path class="st3" d="M370.1-29.9h-16.9v-42.1h16.9c7.4,0,11.6,3.5,11.6,10c0,5-2.3,8.4-6.3,9.7v0.2c4.8,1,7.7,4.4,7.7,10.5
				C383.1-34.1,378.4-29.9,370.1-29.9z M369.6-67.7h-12V-54h12c5,0,7.7-2.5,7.7-6.8C377.2-65.4,374.7-67.7,369.6-67.7z M369.6-49.9
				h-12v15.7h12c6.2,0,9.1-2.7,9.1-8C378.6-47.2,375.6-49.9,369.6-49.9z"/>
			<path class="st3" d="M416.4-29.9V-66l-19.5,36.1h-5.5v-42.1h4.4V-36l19.5-36.1h5.5v42.1H416.4z"/>
			<path class="st3" d="M445.9-28.7c-10.1,0-16.7-8.6-16.7-21.9c0-13.8,6.7-22.7,16.9-22.7c8.4,0,13.8,5.4,14.8,14.5h-4.5
				c-1.1-6.6-4.7-10.2-10.3-10.2c-7.6,0-12.4,7-12.4,18s4.6,18,11.9,18c6,0,10.1-4.4,11-12h4.4C460-35.4,454.6-28.7,445.9-28.7z"/>
		</g>
		<g>
			<path class="st3" d="M123.5-160c14.1,27.2,21.4,40.1,28.8,50.2c4.2,2.9,5.8,5.7,5.8,10c0,5.7-5.3,11.1-11.5,11.1
				c-9.9,0-16.1-12.6-33.6-41.4c0,6.8,0.9,14.1,0.9,19.7c0,8.9-5.1,14.1-11.7,11.9c-2.2,2.4-4.9,3.8-8.2,3.8c-7.8,0-10.4-5.1-12-15
				c-1.1-5.5-0.7-22.4-0.4-44.3c0.2-11.9,0.5-21.7,1.1-29.7l1.3-20.8c1.1-14.6,0.7-25.2,13.5-25.2c3.6,0,5.7,0.5,7.8,2
				c1.1-0.4,2.2-0.5,3.3-0.5c5.8,0,10.9,4.7,10.9,11.3c0,2.6-0.5,3.6-1.5,5.7c-0.5,3.5-1.3,19.3-1.5,24.8l0.2-0.2
				c4.2-4.9,8.2-10.2,11.7-15.5c7.1-10.6,14.2-19.3,21.7-19.3c6.2,0,11.1,4.6,11.1,11c0,5.5-2,7.5-7.3,11.7
				c-1.3,0.9-3.7,3.8-6.8,8.8C141.2-180.3,137.7-176.3,123.5-160z"/>
			<path class="st3" d="M255.6-222.8c2.2,2.4,3.3,4.9,3.3,8v0.9l0.5,2.6c0.5,2.7,1.8,10.2,3.5,22.1c1.6,12.2,2.4,23.5,2.2,34.1
				l-0.2,21.2c0,5.1-0.7,10-2,14.6c-1.1,4.2-2.2,7.5-3.3,10c-1.1,2.7-2.2,5.1-3.1,6.9l-1.1,1.8c-1.3,2.2-2.9,3.8-5.3,4.7
				c-1.5,0.5-2.9,0.9-4.4,0.9c-0.9,0-1.8-0.2-2.7-0.4c-0.9,0.4-1.6,0.5-2.6,0.5c-3.1,0.2-5.7-0.7-8-2.7c-2.4-2-3.8-4.6-4-7.7
				l-0.2-1.3c0-1.5,0.2-3.5,0.4-5.8c0.2-2,0.7-4.7,1.3-8c0.5-2.4,0.9-4.9,1.1-7.3c0.2-2.4,0.4-6.4,0.4-11.9c0-5.8-0.2-13.3-0.4-22.6
				c-0.2-9.1-0.5-16.4-1.1-21.7c-0.4-4.9-1.1-9.7-2.2-14.1l-0.9-4l-5.8,0.5c0.2,1.3,0.2,2.4,0.2,3.5c0.2,1.6,0.2,3.6,0.2,5.8v15.9
				c0,3.8-0.2,8.9-0.4,15.3c-0.2,6.8-1.1,14.6-2.7,23.4c-1.8,9.3-4,16.2-6.4,21.2c-2.4,4.4-4.6,8-6.8,11.1c-2,2.6-4.4,4.6-6.8,6
				c-2.9,1.5-5.7,2.2-8.6,2.2c-2.4,0-6-0.4-8.2-0.7l-3.3-0.5l-1.6-0.4c-3.1-0.7-5.3-2.4-6.9-5.1c-1.3-1.8-1.8-3.6-1.8-5.8
				c0-4.2,1.8-7.3,5.3-9.5c1.8-1.3,3.8-1.8,5.8-1.8c0.7,0,1.6,0.2,2.6,0.4l1.8,0.4c0.7,0.2,1.5,0.4,2.2,0.4c2.4,0,4.7-1.6,6.4-6.8
				c0.9-3.1,2.9-8,4.2-15.1c1.5-7.5,2.4-14.1,2.6-19.7l0.2-14.8V-192c0-2,0-3.7-0.2-4.9c0-1.3,0-2.6-0.2-4c-0.2-2-0.4-3.8-0.4-5.5
				c0-2,0.2-4,0.5-5.7c1.5-5.5,5.5-8.9,11.9-10.2l6.9-1.3c3.5-0.7,10-1.1,12-1.1c2,0,3.8,0.2,5.7,0.5c1.6,0.2,3.1,0.7,4.4,1.6
				c2.4-2.4,5.1-3.6,8.2-3.6S253.4-225,255.6-222.8z"/>
			<path class="st3" d="M353.2-230.5c2.2,2.2,3.3,4.7,3.3,7.8v5.7c0,3.1,0.4,6,0.9,9.1l4.2,17.5c2.2,8.9,3.3,16.8,3.5,23.9
				c0.2,2.6,0.2,5.3,0.2,8.2c0,4.2-0.2,8.9-0.4,13.9c-0.4,9.3-1.6,16.4-3.7,21c-1.3,2.9-2.4,6.2-3.5,9.9c-1.3,4.6-2.4,7.8-3.3,10
				l-1.3,2.9c-0.4,1.1-0.9,2.2-1.8,3.1c-0.9,2.7-2.6,4.7-4.9,6.4c-1.8,1.1-3.8,1.6-5.7,1.6c-4,0-7.1-1.8-9.3-4.9c-1.5-1.8-2-4-2-6
				c0-0.9,0-1.6,0.2-2.4l0.2-1.5l0.4-3.3l0.4-6.6c0.2-2,0.2-4.9,0.2-8.6l-0.2-16.8V-150l-0.4,0.9c-3.5,9.1-7.1,17-11.1,23.7
				c-2.4,4-4.4,7.3-6.4,9.7c-2,2.4-4.2,4.4-6.9,6c-0.5,0.4-1.8,0.7-3.8,1.1c-1.6,0.4-3.7,0.5-5.8,0.5c-3.1,0-5.8-0.9-8-3.1
				c-2-1.8-3.1-4.7-3.3-8.6c0.2-1.8-0.2-6.4-0.7-13.9c-0.5-7.8-0.7-19.2-0.7-33.8c0-14.4,0-24.5,0.2-29.9c0.2-6.8,0.7-11.7,2-14.8
				l1.1-2.7c1.3-2.9,3.3-4.9,6.2-6.2c1.5-0.7,2.9-0.9,4.4-0.9c1.5,0,2.7,0.2,4.2,0.7c2.7,1.1,4.7,3.1,6,5.8c0.7,1.6,0.9,3.1,0.9,4.6
				c0,1.5-0.2,2.7-0.7,4.2l-1.1,2.6c-0.2,1.3-0.4,3.8-0.5,7.3c-0.2,5.3-0.2,15-0.2,29.4c0,6.8,0,13,0.2,18.4l3.3-8
				c2.9-7.8,5.3-17.2,7.3-27.9c2-11.5,3.5-19,4.2-22.3l1.5-7.1c0.2-1.5,0.4-2.7,0.4-3.8l-0.4-0.5c-0.2-0.2-0.4-0.7-0.5-1.5
				c-0.2-0.5,0-1.3,0.2-2c0.2-0.7,0.9-1.6,2-2.9c1.1-1.1,2.7-2.2,4.7-3.3c3.7-2,6.8-2.9,9.3-2.7c2.2-1.8,4.6-2.7,7.3-2.7
				C348.3-233.8,350.8-232.7,353.2-230.5z"/>
			<path class="st3" d="M423.2-160c14.1,27.2,21.4,40.1,28.8,50.2c4.2,2.9,5.8,5.7,5.8,10c0,5.7-5.3,11.1-11.5,11.1
				c-9.9,0-16.1-12.6-33.6-41.4c0,6.8,0.9,14.1,0.9,19.7c0,8.9-5.1,14.1-11.7,11.9c-2.2,2.4-4.9,3.8-8.2,3.8c-7.8,0-10.4-5.1-12-15
				c-1.1-5.5-0.7-22.4-0.4-44.3c0.2-11.9,0.5-21.7,1.1-29.7l1.3-20.8c1.1-14.6,0.7-25.2,13.5-25.2c3.6,0,5.7,0.5,7.8,2
				c1.1-0.4,2.2-0.5,3.3-0.5c5.8,0,11,4.7,11,11.3c0,2.6-0.5,3.6-1.5,5.7c-0.5,3.5-1.3,19.3-1.5,24.8l0.2-0.2
				c4.2-4.9,8.2-10.2,11.7-15.5c7.1-10.6,14.2-19.3,21.7-19.3c6.2,0,11.1,4.6,11.1,11c0,5.5-2,7.5-7.3,11.7
				c-1.3,0.9-3.7,3.8-6.8,8.8C440.9-180.3,437.5-176.3,423.2-160z"/>
		</g>
	</g>
</g>
<g>
	<rect x="18.6" y="25" class="st4" width="274.7" height="140.4"/>
	<g>
		<path class="st3" d="M256.4,74.4l-0.9-0.5c-2.2-1.4-8.2-4.2-9.8-5c-1.7-0.8-3.3-0.5-4.4,0.3c-1.4,1-2.1,2.9-2.1,4.8
			c0,0.6,0.1,0.8,0.1,2.5c0,0.8,0,1.5-0.1,2.3c-0.1,1,0,1.9,0.1,2.8c0.1,0.5,0.1,0.9,0.1,1.3c0,0.7,0.1,1.3,0.2,1.8l0.1,0.3l0,0.5
			c0,0.6,0.2,1.3,0.6,1.7c0.5,0.7,1.3,1.1,2.2,1.1c0.6,0,1.2-0.2,1.7-0.6c0.7-0.5,3.1-2.4,3.5-1.5c0.4,0.8,1.1,2.4,2.1,4.7
			c1,2.4,1.9,4.5,2.7,6.1c0.8,1.5,1.2,2.6,1.4,3.2c0.5,1.5,1.6,3.5,2.8,4.7c0.4,0.4,0.7,0.6,1,0.8l0.6,0.4c0.7,0.4,1.3,0.4,2.1,0.3
			c0.5-0.1,0.9-0.4,1.2-0.7c0.7-0.7,1-1.7,0.7-2.7c-0.2-0.5-0.4-0.9-0.7-1.2c-0.2-0.2-0.4-0.3-0.6-0.4l-0.5-0.3
			c-0.2-0.2-0.3-0.4-0.5-0.7c-0.4-0.7-0.7-1.2-0.9-1.7c-0.3-0.9-0.9-2.2-1.8-3.9l-0.2-0.4c0.3-0.1,0.5-0.2,0.7-0.3
			c0.2-0.1,0.4-0.3,0.5-0.4c0.9-0.9,1.1-2.3,0.5-3.4l-0.3-0.5c-0.2-0.4-0.4-0.8-0.7-1.1c-0.2-0.2-0.4-0.5-0.6-1
			c-0.3-0.5-3.7-4.7-3.7-4.7s2-1.3,2.9-2c0.9-0.7,1.3-2,0.9-3.1c0.4-0.9,0.2-2.1-0.3-2.8C256.9,74.7,256.7,74.5,256.4,74.4z"/>
		<g>
			<path class="st3" d="M132.3,143.5c-5,0-8.2-4.2-8.2-10.8c0-6.8,3.3-11.2,8.3-11.2c4.1,0,6.8,2.7,7.3,7.1h-2.2
				c-0.6-3.3-2.3-5-5.1-5c-3.7,0-6.1,3.5-6.1,8.9c0,5.4,2.3,8.9,5.9,8.9c3,0,5-2.2,5.4-5.9h2.2C139.2,140.2,136.6,143.5,132.3,143.5
				z"/>
			<path class="st3" d="M150.9,143.6c-5,0-8.2-4.2-8.2-10.8c0-6.6,3.4-11.2,8.1-11.2c5.3,0,7.8,5.1,7.8,10.8v0.7H145
				c0,4.4,1.7,8.4,6,8.4c2.8,0,4.7-1.9,5.4-5.5h2.1C157.8,140.6,155.1,143.6,150.9,143.6z M150.8,123.6c-3.9,0-5.4,3.5-5.9,7.4h11.6
				C156.3,126.4,154.1,123.6,150.8,123.6z"/>
			<path class="st3" d="M164.6,126.1c1.3-3.1,3.4-4.6,6.4-4.6c4.8,0,8,4.4,8,11.1c0,6.6-3.2,10.9-8,10.9c-2.9,0-5.1-1.5-6.3-4.5
				v11.6h-2.1v-28.5h2V126.1z M164.7,132.5c0,5.5,2.4,8.8,6.1,8.8c3.6,0,6-3.5,6-8.8c0-5.5-2.4-9-6.1-9
				C167,123.6,164.7,127,164.7,132.5z"/>
			<path class="st3" d="M191.6,142.9h-8.3v-20.8h8.3c3.6,0,5.7,1.7,5.7,4.9c0,2.5-1.1,4.1-3.1,4.8v0.1c2.4,0.5,3.8,2.2,3.8,5.2
				C198,140.8,195.7,142.9,191.6,142.9z M191.4,124.2h-5.9v6.8h5.9c2.5,0,3.8-1.3,3.8-3.4C195.1,125.4,193.9,124.2,191.4,124.2z
				 M191.4,133h-5.9v7.7h5.9c3,0,4.5-1.3,4.5-4C195.8,134.4,194.3,133,191.4,133z"/>
			<path class="st3" d="M214.4,142.9v-17.8l-9.6,17.8h-2.7v-20.8h2.2v17.8l9.6-17.8h2.7v20.8H214.4z"/>
			<path class="st3" d="M229,143.5c-5,0-8.2-4.2-8.2-10.8c0-6.8,3.3-11.2,8.3-11.2c4.1,0,6.8,2.7,7.3,7.1h-2.2c-0.6-3.3-2.3-5-5.1-5
				c-3.7,0-6.1,3.5-6.1,8.9c0,5.4,2.3,8.9,5.9,8.9c3,0,5-2.2,5.4-5.9h2.2C235.9,140.2,233.3,143.5,229,143.5z"/>
		</g>
		<g>
			<path class="st3" d="M70.1,78.8c6.9,13.4,10.5,19.8,14.2,24.7c2.1,1.4,2.9,2.8,2.9,4.9c0,2.8-2.6,5.5-5.7,5.5
				c-4.9,0-7.9-6.2-16.5-20.4c0,3.3,0.4,6.9,0.4,9.7c0,4.4-2.5,6.9-5.8,5.8c-1.1,1.2-2.4,1.9-4,1.9c-3.9,0-5.1-2.5-5.9-7.4
				c-0.5-2.7-0.4-11.1-0.2-21.9c0.1-5.8,0.3-10.7,0.5-14.7l0.6-10.3c0.5-7.2,0.4-12.4,6.7-12.4c1.8,0,2.8,0.3,3.9,1
				c0.5-0.2,1.1-0.3,1.6-0.3c2.9,0,5.4,2.3,5.4,5.6c0,1.3-0.3,1.8-0.7,2.8c-0.3,1.7-0.6,9.5-0.7,12.2l0.1-0.1c2.1-2.4,4-5,5.8-7.6
				c3.5-5.2,7-9.5,10.7-9.5c3.1,0,5.5,2.2,5.5,5.4c0,2.7-1,3.7-3.6,5.8c-0.6,0.4-1.8,1.9-3.3,4.3C78.8,68.8,77.1,70.8,70.1,78.8z"/>
			<path class="st3" d="M135.2,47.8c1.1,1.2,1.6,2.4,1.6,4v0.4l0.3,1.3c0.3,1.3,0.9,5,1.7,10.9c0.8,6,1.2,11.6,1.1,16.8l-0.1,10.4
				c0,2.5-0.4,4.9-1,7.2c-0.5,2.1-1.1,3.7-1.6,4.9c-0.5,1.3-1.1,2.5-1.5,3.4l-0.5,0.9c-0.6,1.1-1.4,1.9-2.6,2.3
				c-0.7,0.3-1.4,0.4-2.2,0.4c-0.4,0-0.9-0.1-1.3-0.2c-0.4,0.2-0.8,0.3-1.3,0.3c-1.5,0.1-2.8-0.4-4-1.3c-1.2-1-1.9-2.2-2-3.8
				l-0.1-0.6c0-0.7,0.1-1.7,0.2-2.9c0.1-1,0.4-2.3,0.6-4c0.3-1.2,0.4-2.4,0.5-3.6c0.1-1.2,0.2-3.1,0.2-5.8c0-2.9-0.1-6.6-0.2-11.2
				c-0.1-4.5-0.3-8.1-0.5-10.7c-0.2-2.4-0.5-4.8-1.1-6.9l-0.4-2l-2.9,0.3c0.1,0.6,0.1,1.2,0.1,1.7c0.1,0.8,0.1,1.8,0.1,2.9v7.8
				c0,1.9-0.1,4.4-0.2,7.6c-0.1,3.3-0.5,7.2-1.3,11.5c-0.9,4.6-2,8-3.1,10.4c-1.2,2.2-2.2,4-3.3,5.5c-1,1.3-2.2,2.2-3.3,3
				c-1.4,0.7-2.8,1.1-4.2,1.1c-1.2,0-3-0.2-4-0.4l-1.6-0.3l-0.8-0.2c-1.5-0.4-2.6-1.2-3.4-2.5c-0.6-0.9-0.9-1.8-0.9-2.9
				c0-2.1,0.9-3.6,2.6-4.7c0.9-0.6,1.9-0.9,2.9-0.9c0.4,0,0.8,0.1,1.3,0.2l0.9,0.2c0.4,0.1,0.7,0.2,1.1,0.2c1.2,0,2.3-0.8,3.1-3.3
				c0.4-1.5,1.4-4,2.1-7.5c0.7-3.7,1.2-6.9,1.3-9.7l0.1-7.3V63c0-1,0-1.8-0.1-2.4c0-0.6,0-1.3-0.1-2c-0.1-1-0.2-1.9-0.2-2.7
				c0-1,0.1-2,0.3-2.8c0.7-2.7,2.7-4.4,5.8-5l3.4-0.6c1.7-0.4,4.9-0.5,5.9-0.5c1,0,1.9,0.1,2.8,0.3c0.8,0.1,1.5,0.4,2.2,0.8
				c1.2-1.2,2.5-1.8,4-1.8C132.8,46.2,134.1,46.7,135.2,47.8z"/>
			<path class="st3" d="M183.3,44c1.1,1.1,1.6,2.3,1.6,3.9v2.8c0,1.5,0.2,3,0.4,4.5l2.1,8.6c1.1,4.4,1.6,8.3,1.7,11.8
				c0.1,1.3,0.1,2.6,0.1,4c0,2.1-0.1,4.4-0.2,6.8c-0.2,4.6-0.8,8.1-1.8,10.3c-0.6,1.4-1.2,3.1-1.7,4.9c-0.6,2.2-1.2,3.9-1.6,4.9
				l-0.6,1.4c-0.2,0.5-0.4,1.1-0.9,1.5c-0.4,1.3-1.3,2.3-2.4,3.1c-0.9,0.5-1.9,0.8-2.8,0.8c-2,0-3.5-0.9-4.6-2.4c-0.7-0.9-1-2-1-3
				c0-0.4,0-0.8,0.1-1.2l0.1-0.7l0.2-1.6l0.2-3.2c0.1-1,0.1-2.4,0.1-4.2l-0.1-8.3v-5.2l-0.2,0.4c-1.7,4.5-3.5,8.4-5.5,11.7
				c-1.2,2-2.2,3.6-3.1,4.8c-1,1.2-2.1,2.2-3.4,3c-0.3,0.2-0.9,0.4-1.9,0.5c-0.8,0.2-1.8,0.3-2.9,0.3c-1.5,0-2.9-0.4-4-1.5
				c-1-0.9-1.5-2.3-1.6-4.2c0.1-0.9-0.1-3.1-0.4-6.8c-0.3-3.9-0.4-9.4-0.4-16.6c0-7.1,0-12.1,0.1-14.8c0.1-3.3,0.4-5.8,1-7.3
				l0.5-1.3c0.6-1.4,1.6-2.4,3.1-3.1c0.7-0.4,1.4-0.4,2.2-0.4s1.3,0.1,2.1,0.4c1.3,0.5,2.3,1.5,3,2.9c0.4,0.8,0.4,1.5,0.4,2.2
				s-0.1,1.3-0.4,2.1l-0.5,1.3c-0.1,0.6-0.2,1.9-0.3,3.6c-0.1,2.6-0.1,7.4-0.1,14.5c0,3.3,0,6.4,0.1,9.1l1.6-4
				c1.4-3.9,2.6-8.5,3.6-13.8c1-5.7,1.7-9.4,2.1-11l0.7-3.5c0.1-0.7,0.2-1.3,0.2-1.9l-0.2-0.3c-0.1-0.1-0.2-0.4-0.3-0.7
				c-0.1-0.3,0-0.6,0.1-1c0.1-0.4,0.4-0.8,1-1.4c0.5-0.5,1.3-1.1,2.3-1.6c1.8-1,3.3-1.4,4.6-1.3c1.1-0.9,2.2-1.3,3.6-1.3
				C180.9,42.4,182.1,43,183.3,44z"/>
			<path class="st3" d="M217.8,78.8c6.9,13.4,10.5,19.8,14.2,24.7c2.1,1.4,2.9,2.8,2.9,4.9c0,2.8-2.6,5.5-5.7,5.5
				c-4.9,0-7.9-6.2-16.5-20.4c0,3.3,0.4,6.9,0.4,9.7c0,4.4-2.5,6.9-5.8,5.8c-1.1,1.2-2.4,1.9-4,1.9c-3.9,0-5.1-2.5-5.9-7.4
				c-0.5-2.7-0.4-11.1-0.2-21.9c0.1-5.8,0.3-10.7,0.5-14.7l0.6-10.3c0.5-7.2,0.4-12.4,6.7-12.4c1.8,0,2.8,0.3,3.9,1
				c0.5-0.2,1.1-0.3,1.6-0.3c2.9,0,5.4,2.3,5.4,5.6c0,1.3-0.3,1.8-0.7,2.8c-0.3,1.7-0.6,9.5-0.7,12.2l0.1-0.1c2.1-2.4,4-5,5.8-7.6
				c3.5-5.2,7-9.5,10.7-9.5c3.1,0,5.5,2.2,5.5,5.4c0,2.7-1,3.7-3.6,5.8c-0.6,0.4-1.8,1.9-3.3,4.3C226.5,68.8,224.8,70.8,217.8,78.8z
				"/>
		</g>
	</g>
</g>
<g class="st0">
	<rect x="18.6" y="176.5" class="st5" width="274.7" height="140.4"/>
	<g class="st2">
		<path class="st3" d="M256.4,225.9l-0.9-0.5c-2.2-1.4-8.2-4.2-9.8-5c-1.7-0.8-3.3-0.5-4.4,0.3c-1.4,1-2.1,2.9-2.1,4.8
			c0,0.6,0.1,0.8,0.1,2.5c0,0.8,0,1.5-0.1,2.3c-0.1,1,0,1.9,0.1,2.8c0.1,0.5,0.1,0.9,0.1,1.3c0,0.7,0.1,1.3,0.2,1.8l0.1,0.3l0,0.5
			c0,0.6,0.2,1.3,0.6,1.7c0.5,0.7,1.3,1.1,2.2,1.1c0.6,0,1.2-0.2,1.7-0.6c0.7-0.5,3.1-2.4,3.5-1.5c0.4,0.8,1.1,2.4,2.1,4.7
			c1,2.4,1.9,4.5,2.7,6.1c0.8,1.5,1.2,2.6,1.4,3.2c0.5,1.5,1.6,3.5,2.8,4.7c0.4,0.4,0.7,0.6,1,0.8l0.6,0.4c0.7,0.4,1.3,0.4,2.1,0.3
			c0.5-0.1,0.9-0.4,1.2-0.7c0.7-0.7,1-1.7,0.7-2.7c-0.2-0.5-0.4-0.9-0.7-1.2c-0.2-0.2-0.4-0.3-0.6-0.4l-0.5-0.3
			c-0.2-0.2-0.3-0.4-0.5-0.7c-0.4-0.7-0.7-1.2-0.9-1.7c-0.3-0.9-0.9-2.2-1.8-3.9l-0.2-0.4c0.3-0.1,0.5-0.2,0.7-0.3
			c0.2-0.1,0.4-0.3,0.5-0.4c0.9-0.9,1.1-2.3,0.5-3.4l-0.3-0.5c-0.2-0.4-0.4-0.8-0.7-1.1c-0.2-0.2-0.4-0.5-0.6-1
			c-0.3-0.5-3.7-4.7-3.7-4.7s2-1.3,2.9-2c0.9-0.7,1.3-2,0.9-3.1c0.4-0.9,0.2-2.1-0.3-2.8C256.9,226.3,256.7,226,256.4,225.9z"/>
		<g>
			<path class="st3" d="M132.3,295c-5,0-8.2-4.2-8.2-10.8c0-6.8,3.3-11.2,8.3-11.2c4.1,0,6.8,2.7,7.3,7.1h-2.2c-0.6-3.3-2.3-5-5.1-5
				c-3.7,0-6.1,3.5-6.1,8.9c0,5.4,2.3,8.9,5.9,8.9c3,0,5-2.2,5.4-5.9h2.2C139.2,291.7,136.6,295,132.3,295z"/>
			<path class="st3" d="M150.9,295.1c-5,0-8.2-4.2-8.2-10.8c0-6.6,3.4-11.2,8.1-11.2c5.3,0,7.8,5.1,7.8,10.8v0.7H145
				c0,4.4,1.7,8.4,6,8.4c2.8,0,4.7-1.9,5.4-5.5h2.1C157.8,292.2,155.1,295.1,150.9,295.1z M150.8,275.1c-3.9,0-5.4,3.5-5.9,7.4h11.6
				C156.3,277.9,154.1,275.1,150.8,275.1z"/>
			<path class="st3" d="M164.6,277.6c1.3-3.1,3.4-4.6,6.4-4.6c4.8,0,8,4.4,8,11.1c0,6.6-3.2,10.9-8,10.9c-2.9,0-5.1-1.5-6.3-4.5
				v11.6h-2.1v-28.5h2V277.6z M164.7,284c0,5.5,2.4,8.8,6.1,8.8c3.6,0,6-3.5,6-8.8c0-5.5-2.4-9-6.1-9
				C167,275.1,164.7,278.5,164.7,284z"/>
			<path class="st3" d="M191.6,294.4h-8.3v-20.8h8.3c3.6,0,5.7,1.7,5.7,4.9c0,2.5-1.1,4.1-3.1,4.8v0.1c2.4,0.5,3.8,2.2,3.8,5.2
				C198,292.3,195.7,294.4,191.6,294.4z M191.4,275.8h-5.9v6.8h5.9c2.5,0,3.8-1.3,3.8-3.4C195.1,276.9,193.9,275.8,191.4,275.8z
				 M191.4,284.5h-5.9v7.7h5.9c3,0,4.5-1.3,4.5-4C195.8,285.9,194.3,284.5,191.4,284.5z"/>
			<path class="st3" d="M214.4,294.4v-17.8l-9.6,17.8h-2.7v-20.8h2.2v17.8l9.6-17.8h2.7v20.8H214.4z"/>
			<path class="st3" d="M229,295c-5,0-8.2-4.2-8.2-10.8c0-6.8,3.3-11.2,8.3-11.2c4.1,0,6.8,2.7,7.3,7.1h-2.2c-0.6-3.3-2.3-5-5.1-5
				c-3.7,0-6.1,3.5-6.1,8.9c0,5.4,2.3,8.9,5.9,8.9c3,0,5-2.2,5.4-5.9h2.2C235.9,291.7,233.3,295,229,295z"/>
		</g>
		<g>
			<path class="st3" d="M70.1,230.3c6.9,13.4,10.5,19.8,14.2,24.7c2.1,1.4,2.9,2.8,2.9,4.9c0,2.8-2.6,5.5-5.7,5.5
				c-4.9,0-7.9-6.2-16.5-20.4c0,3.3,0.4,6.9,0.4,9.7c0,4.4-2.5,6.9-5.8,5.8c-1.1,1.2-2.4,1.9-4,1.9c-3.9,0-5.1-2.5-5.9-7.4
				c-0.5-2.7-0.4-11.1-0.2-21.9c0.1-5.8,0.3-10.7,0.5-14.7l0.6-10.3c0.5-7.2,0.4-12.4,6.7-12.4c1.8,0,2.8,0.3,3.9,1
				c0.5-0.2,1.1-0.3,1.6-0.3c2.9,0,5.4,2.3,5.4,5.6c0,1.3-0.3,1.8-0.7,2.8c-0.3,1.7-0.6,9.5-0.7,12.2l0.1-0.1c2.1-2.4,4-5,5.8-7.6
				c3.5-5.2,7-9.5,10.7-9.5c3.1,0,5.5,2.2,5.5,5.4c0,2.7-1,3.7-3.6,5.8c-0.6,0.4-1.8,1.9-3.3,4.3C78.8,220.3,77.1,222.3,70.1,230.3z
				"/>
			<path class="st3" d="M135.2,199.3c1.1,1.2,1.6,2.4,1.6,4v0.4l0.3,1.3c0.3,1.3,0.9,5,1.7,10.9c0.8,6,1.2,11.6,1.1,16.8l-0.1,10.4
				c0,2.5-0.4,4.9-1,7.2c-0.5,2.1-1.1,3.7-1.6,4.9c-0.5,1.3-1.1,2.5-1.5,3.4l-0.5,0.9c-0.6,1.1-1.4,1.9-2.6,2.3
				c-0.7,0.3-1.4,0.4-2.2,0.4c-0.4,0-0.9-0.1-1.3-0.2c-0.4,0.2-0.8,0.3-1.3,0.3c-1.5,0.1-2.8-0.4-4-1.3c-1.2-1-1.9-2.2-2-3.8
				l-0.1-0.6c0-0.7,0.1-1.7,0.2-2.9c0.1-1,0.4-2.3,0.6-4c0.3-1.2,0.4-2.4,0.5-3.6c0.1-1.2,0.2-3.1,0.2-5.8c0-2.9-0.1-6.6-0.2-11.2
				c-0.1-4.5-0.3-8.1-0.5-10.7c-0.2-2.4-0.5-4.8-1.1-6.9l-0.4-2l-2.9,0.3c0.1,0.6,0.1,1.2,0.1,1.7c0.1,0.8,0.1,1.8,0.1,2.9v7.8
				c0,1.9-0.1,4.4-0.2,7.6c-0.1,3.3-0.5,7.2-1.3,11.5c-0.9,4.6-2,8-3.1,10.4c-1.2,2.2-2.2,4-3.3,5.5c-1,1.3-2.2,2.2-3.3,3
				c-1.4,0.7-2.8,1.1-4.2,1.1c-1.2,0-3-0.2-4-0.4l-1.6-0.3l-0.8-0.2c-1.5-0.4-2.6-1.2-3.4-2.5c-0.6-0.9-0.9-1.8-0.9-2.9
				c0-2.1,0.9-3.6,2.6-4.7c0.9-0.6,1.9-0.9,2.9-0.9c0.4,0,0.8,0.1,1.3,0.2l0.9,0.2c0.4,0.1,0.7,0.2,1.1,0.2c1.2,0,2.3-0.8,3.1-3.3
				c0.4-1.5,1.4-4,2.1-7.5c0.7-3.7,1.2-6.9,1.3-9.7l0.1-7.3v-7.8c0-1,0-1.8-0.1-2.4c0-0.6,0-1.3-0.1-2c-0.1-1-0.2-1.9-0.2-2.7
				c0-1,0.1-2,0.3-2.8c0.7-2.7,2.7-4.4,5.8-5l3.4-0.6c1.7-0.4,4.9-0.5,5.9-0.5c1,0,1.9,0.1,2.8,0.3c0.8,0.1,1.5,0.4,2.2,0.8
				c1.2-1.2,2.5-1.8,4-1.8C132.8,197.7,134.1,198.3,135.2,199.3z"/>
			<path class="st3" d="M183.3,195.6c1.1,1.1,1.6,2.3,1.6,3.9v2.8c0,1.5,0.2,3,0.4,4.5l2.1,8.6c1.1,4.4,1.6,8.3,1.7,11.8
				c0.1,1.3,0.1,2.6,0.1,4c0,2.1-0.1,4.4-0.2,6.8c-0.2,4.6-0.8,8.1-1.8,10.3c-0.6,1.4-1.2,3.1-1.7,4.9c-0.6,2.2-1.2,3.9-1.6,4.9
				l-0.6,1.4c-0.2,0.5-0.4,1.1-0.9,1.5c-0.4,1.3-1.3,2.3-2.4,3.1c-0.9,0.5-1.9,0.8-2.8,0.8c-2,0-3.5-0.9-4.6-2.4c-0.7-0.9-1-2-1-3
				c0-0.4,0-0.8,0.1-1.2l0.1-0.7l0.2-1.6l0.2-3.2c0.1-1,0.1-2.4,0.1-4.2l-0.1-8.3v-5.2l-0.2,0.4c-1.7,4.5-3.5,8.4-5.5,11.7
				c-1.2,2-2.2,3.6-3.1,4.8c-1,1.2-2.1,2.2-3.4,3c-0.3,0.2-0.9,0.4-1.9,0.5c-0.8,0.2-1.8,0.3-2.9,0.3c-1.5,0-2.9-0.4-4-1.5
				c-1-0.9-1.5-2.3-1.6-4.2c0.1-0.9-0.1-3.1-0.4-6.8c-0.3-3.9-0.4-9.4-0.4-16.6c0-7.1,0-12.1,0.1-14.8c0.1-3.3,0.4-5.8,1-7.3
				l0.5-1.3c0.6-1.4,1.6-2.4,3.1-3.1c0.7-0.4,1.4-0.4,2.2-0.4s1.3,0.1,2.1,0.4c1.3,0.5,2.3,1.5,3,2.9c0.4,0.8,0.4,1.5,0.4,2.2
				s-0.1,1.3-0.4,2.1l-0.5,1.3c-0.1,0.6-0.2,1.9-0.3,3.6c-0.1,2.6-0.1,7.4-0.1,14.5c0,3.3,0,6.4,0.1,9.1l1.6-4
				c1.4-3.9,2.6-8.5,3.6-13.8c1-5.7,1.7-9.4,2.1-11l0.7-3.5c0.1-0.7,0.2-1.3,0.2-1.9l-0.2-0.3c-0.1-0.1-0.2-0.4-0.3-0.7
				c-0.1-0.3,0-0.6,0.1-1c0.1-0.4,0.4-0.8,1-1.4c0.5-0.5,1.3-1.1,2.3-1.6c1.8-1,3.3-1.4,4.6-1.3c1.1-0.9,2.2-1.3,3.6-1.3
				C180.9,193.9,182.1,194.5,183.3,195.6z"/>
			<path class="st3" d="M217.8,230.3c6.9,13.4,10.5,19.8,14.2,24.7c2.1,1.4,2.9,2.8,2.9,4.9c0,2.8-2.6,5.5-5.7,5.5
				c-4.9,0-7.9-6.2-16.5-20.4c0,3.3,0.4,6.9,0.4,9.7c0,4.4-2.5,6.9-5.8,5.8c-1.1,1.2-2.4,1.9-4,1.9c-3.9,0-5.1-2.5-5.9-7.4
				c-0.5-2.7-0.4-11.1-0.2-21.9c0.1-5.8,0.3-10.7,0.5-14.7l0.6-10.3c0.5-7.2,0.4-12.4,6.7-12.4c1.8,0,2.8,0.3,3.9,1
				c0.5-0.2,1.1-0.3,1.6-0.3c2.9,0,5.4,2.3,5.4,5.6c0,1.3-0.3,1.8-0.7,2.8c-0.3,1.7-0.6,9.5-0.7,12.2l0.1-0.1c2.1-2.4,4-5,5.8-7.6
				c3.5-5.2,7-9.5,10.7-9.5c3.1,0,5.5,2.2,5.5,5.4c0,2.7-1,3.7-3.6,5.8c-0.6,0.4-1.8,1.9-3.3,4.3
				C226.5,220.3,224.8,222.3,217.8,230.3z"/>
		</g>
	</g>
</g>
<g class="st0">
	<rect x="18.6" y="328" class="st6" width="274.7" height="140.4"/>
	<g class="st2">
		<path class="st3" d="M256.4,377.4l-0.9-0.5c-2.2-1.4-8.2-4.2-9.8-5c-1.7-0.8-3.3-0.5-4.4,0.3c-1.4,1-2.1,2.9-2.1,4.8
			c0,0.6,0.1,0.8,0.1,2.5c0,0.8,0,1.5-0.1,2.3c-0.1,1,0,1.9,0.1,2.8c0.1,0.5,0.1,0.9,0.1,1.3c0,0.7,0.1,1.3,0.2,1.8l0.1,0.3l0,0.5
			c0,0.6,0.2,1.3,0.6,1.7c0.5,0.7,1.3,1.1,2.2,1.1c0.6,0,1.2-0.2,1.7-0.6c0.7-0.5,3.1-2.4,3.5-1.5c0.4,0.8,1.1,2.4,2.1,4.7
			c1,2.4,1.9,4.5,2.7,6.1c0.8,1.5,1.2,2.6,1.4,3.2c0.5,1.5,1.6,3.5,2.8,4.7c0.4,0.4,0.7,0.6,1,0.8l0.6,0.4c0.7,0.4,1.3,0.4,2.1,0.3
			c0.5-0.1,0.9-0.4,1.2-0.7c0.7-0.7,1-1.7,0.7-2.7c-0.2-0.5-0.4-0.9-0.7-1.2c-0.2-0.2-0.4-0.3-0.6-0.4l-0.5-0.3
			c-0.2-0.2-0.3-0.4-0.5-0.7c-0.4-0.7-0.7-1.2-0.9-1.7c-0.3-0.9-0.9-2.2-1.8-3.9l-0.2-0.4c0.3-0.1,0.5-0.2,0.7-0.3
			c0.2-0.1,0.4-0.3,0.5-0.4c0.9-0.9,1.1-2.3,0.5-3.4l-0.3-0.5c-0.2-0.4-0.4-0.8-0.7-1.1c-0.2-0.2-0.4-0.5-0.6-1
			c-0.3-0.5-3.7-4.7-3.7-4.7s2-1.3,2.9-2c0.9-0.7,1.3-2,0.9-3.1c0.4-0.9,0.2-2.1-0.3-2.8C256.9,377.8,256.7,377.5,256.4,377.4z"/>
		<g>
			<path class="st3" d="M132.3,446.5c-5,0-8.2-4.2-8.2-10.8c0-6.8,3.3-11.2,8.3-11.2c4.1,0,6.8,2.7,7.3,7.1h-2.2
				c-0.6-3.3-2.3-5-5.1-5c-3.7,0-6.1,3.5-6.1,8.9c0,5.4,2.3,8.9,5.9,8.9c3,0,5-2.2,5.4-5.9h2.2C139.2,443.2,136.6,446.5,132.3,446.5
				z"/>
			<path class="st3" d="M150.9,446.6c-5,0-8.2-4.2-8.2-10.8c0-6.6,3.4-11.2,8.1-11.2c5.3,0,7.8,5.1,7.8,10.8v0.7H145
				c0,4.4,1.7,8.4,6,8.4c2.8,0,4.7-1.9,5.4-5.5h2.1C157.8,443.7,155.1,446.6,150.9,446.6z M150.8,426.7c-3.9,0-5.4,3.5-5.9,7.4h11.6
				C156.3,429.4,154.1,426.7,150.8,426.7z"/>
			<path class="st3" d="M164.6,429.1c1.3-3.1,3.4-4.6,6.4-4.6c4.8,0,8,4.4,8,11.1c0,6.6-3.2,10.9-8,10.9c-2.9,0-5.1-1.5-6.3-4.5
				v11.6h-2.1v-28.5h2V429.1z M164.7,435.5c0,5.5,2.4,8.8,6.1,8.8c3.6,0,6-3.5,6-8.8c0-5.5-2.4-9-6.1-9
				C167,426.6,164.7,430,164.7,435.5z"/>
			<path class="st3" d="M191.6,445.9h-8.3v-20.8h8.3c3.6,0,5.7,1.7,5.7,4.9c0,2.5-1.1,4.1-3.1,4.8v0.1c2.4,0.5,3.8,2.2,3.8,5.2
				C198,443.8,195.7,445.9,191.6,445.9z M191.4,427.3h-5.9v6.8h5.9c2.5,0,3.8-1.3,3.8-3.4C195.1,428.4,193.9,427.3,191.4,427.3z
				 M191.4,436h-5.9v7.7h5.9c3,0,4.5-1.3,4.5-4C195.8,437.4,194.3,436,191.4,436z"/>
			<path class="st3" d="M214.4,445.9v-17.8l-9.6,17.8h-2.7v-20.8h2.2v17.8l9.6-17.8h2.7v20.8H214.4z"/>
			<path class="st3" d="M229,446.5c-5,0-8.2-4.2-8.2-10.8c0-6.8,3.3-11.2,8.3-11.2c4.1,0,6.8,2.7,7.3,7.1h-2.2c-0.6-3.3-2.3-5-5.1-5
				c-3.7,0-6.1,3.5-6.1,8.9c0,5.4,2.3,8.9,5.9,8.9c3,0,5-2.2,5.4-5.9h2.2C235.9,443.2,233.3,446.5,229,446.5z"/>
		</g>
		<g>
			<path class="st3" d="M70.1,381.8c6.9,13.4,10.5,19.8,14.2,24.7c2.1,1.4,2.9,2.8,2.9,4.9c0,2.8-2.6,5.5-5.7,5.5
				c-4.9,0-7.9-6.2-16.5-20.4c0,3.3,0.4,6.9,0.4,9.7c0,4.4-2.5,6.9-5.8,5.8c-1.1,1.2-2.4,1.9-4,1.9c-3.9,0-5.1-2.5-5.9-7.4
				c-0.5-2.7-0.4-11.1-0.2-21.9c0.1-5.8,0.3-10.7,0.5-14.7l0.6-10.3c0.5-7.2,0.4-12.4,6.7-12.4c1.8,0,2.8,0.3,3.9,1
				c0.5-0.2,1.1-0.3,1.6-0.3c2.9,0,5.4,2.3,5.4,5.6c0,1.3-0.3,1.8-0.7,2.8c-0.3,1.7-0.6,9.5-0.7,12.2l0.1-0.1c2.1-2.4,4-5,5.8-7.6
				c3.5-5.2,7-9.5,10.7-9.5c3.1,0,5.5,2.2,5.5,5.4c0,2.7-1,3.7-3.6,5.8c-0.6,0.4-1.8,1.9-3.3,4.3C78.8,371.8,77.1,373.8,70.1,381.8z
				"/>
			<path class="st3" d="M135.2,350.8c1.1,1.2,1.6,2.4,1.6,4v0.4l0.3,1.3c0.3,1.3,0.9,5,1.7,10.9c0.8,6,1.2,11.6,1.1,16.8l-0.1,10.4
				c0,2.5-0.4,4.9-1,7.2c-0.5,2.1-1.1,3.7-1.6,4.9c-0.5,1.3-1.1,2.5-1.5,3.4l-0.5,0.9c-0.6,1.1-1.4,1.9-2.6,2.3
				c-0.7,0.3-1.4,0.4-2.2,0.4c-0.4,0-0.9-0.1-1.3-0.2c-0.4,0.2-0.8,0.3-1.3,0.3c-1.5,0.1-2.8-0.4-4-1.3c-1.2-1-1.9-2.2-2-3.8
				l-0.1-0.6c0-0.7,0.1-1.7,0.2-2.9c0.1-1,0.4-2.3,0.6-4c0.3-1.2,0.4-2.4,0.5-3.6c0.1-1.2,0.2-3.1,0.2-5.8c0-2.9-0.1-6.6-0.2-11.2
				c-0.1-4.5-0.3-8.1-0.5-10.7c-0.2-2.4-0.5-4.8-1.1-6.9l-0.4-2l-2.9,0.3c0.1,0.6,0.1,1.2,0.1,1.7c0.1,0.8,0.1,1.8,0.1,2.9v7.8
				c0,1.9-0.1,4.4-0.2,7.6c-0.1,3.3-0.5,7.2-1.3,11.5c-0.9,4.6-2,8-3.1,10.4c-1.2,2.2-2.2,4-3.3,5.5c-1,1.3-2.2,2.2-3.3,3
				c-1.4,0.7-2.8,1.1-4.2,1.1c-1.2,0-3-0.2-4-0.4l-1.6-0.3l-0.8-0.2c-1.5-0.4-2.6-1.2-3.4-2.5c-0.6-0.9-0.9-1.8-0.9-2.9
				c0-2.1,0.9-3.6,2.6-4.7c0.9-0.6,1.9-0.9,2.9-0.9c0.4,0,0.8,0.1,1.3,0.2l0.9,0.2c0.4,0.1,0.7,0.2,1.1,0.2c1.2,0,2.3-0.8,3.1-3.3
				c0.4-1.5,1.4-4,2.1-7.5c0.7-3.7,1.2-6.9,1.3-9.7l0.1-7.3V366c0-1,0-1.8-0.1-2.4c0-0.6,0-1.3-0.1-2c-0.1-1-0.2-1.9-0.2-2.7
				c0-1,0.1-2,0.3-2.8c0.7-2.7,2.7-4.4,5.8-5l3.4-0.6c1.7-0.4,4.9-0.5,5.9-0.5c1,0,1.9,0.1,2.8,0.3c0.8,0.1,1.5,0.4,2.2,0.8
				c1.2-1.2,2.5-1.8,4-1.8C132.8,349.2,134.1,349.8,135.2,350.8z"/>
			<path class="st3" d="M183.3,347.1c1.1,1.1,1.6,2.3,1.6,3.9v2.8c0,1.5,0.2,3,0.4,4.5l2.1,8.6c1.1,4.4,1.6,8.3,1.7,11.8
				c0.1,1.3,0.1,2.6,0.1,4c0,2.1-0.1,4.4-0.2,6.8c-0.2,4.6-0.8,8.1-1.8,10.3c-0.6,1.4-1.2,3.1-1.7,4.9c-0.6,2.2-1.2,3.9-1.6,4.9
				l-0.6,1.4c-0.2,0.5-0.4,1.1-0.9,1.5c-0.4,1.3-1.3,2.3-2.4,3.1c-0.9,0.5-1.9,0.8-2.8,0.8c-2,0-3.5-0.9-4.6-2.4c-0.7-0.9-1-2-1-3
				c0-0.4,0-0.8,0.1-1.2l0.1-0.7l0.2-1.6l0.2-3.2c0.1-1,0.1-2.4,0.1-4.2l-0.1-8.3v-5.2l-0.2,0.4c-1.7,4.5-3.5,8.4-5.5,11.7
				c-1.2,2-2.2,3.6-3.1,4.8c-1,1.2-2.1,2.2-3.4,3c-0.3,0.2-0.9,0.4-1.9,0.5c-0.8,0.2-1.8,0.3-2.9,0.3c-1.5,0-2.9-0.4-4-1.5
				c-1-0.9-1.5-2.3-1.6-4.2c0.1-0.9-0.1-3.1-0.4-6.8c-0.3-3.9-0.4-9.4-0.4-16.6c0-7.1,0-12.1,0.1-14.8c0.1-3.3,0.4-5.8,1-7.3
				l0.5-1.3c0.6-1.4,1.6-2.4,3.1-3.1c0.7-0.4,1.4-0.4,2.2-0.4s1.3,0.1,2.1,0.4c1.3,0.5,2.3,1.5,3,2.9c0.4,0.8,0.4,1.5,0.4,2.2
				c0,0.7-0.1,1.3-0.4,2.1l-0.5,1.3c-0.1,0.6-0.2,1.9-0.3,3.6c-0.1,2.6-0.1,7.4-0.1,14.5c0,3.3,0,6.4,0.1,9.1l1.6-4
				c1.4-3.9,2.6-8.5,3.6-13.8c1-5.7,1.7-9.4,2.1-11l0.7-3.5c0.1-0.7,0.2-1.3,0.2-1.9l-0.2-0.3c-0.1-0.1-0.2-0.4-0.3-0.7
				c-0.1-0.3,0-0.6,0.1-1c0.1-0.4,0.4-0.8,1-1.4c0.5-0.5,1.3-1.1,2.3-1.6c1.8-1,3.3-1.4,4.6-1.3c1.1-0.9,2.2-1.3,3.6-1.3
				C180.9,345.4,182.1,346,183.3,347.1z"/>
			<path class="st3" d="M217.8,381.8c6.9,13.4,10.5,19.8,14.2,24.7c2.1,1.4,2.9,2.8,2.9,4.9c0,2.8-2.6,5.5-5.7,5.5
				c-4.9,0-7.9-6.2-16.5-20.4c0,3.3,0.4,6.9,0.4,9.7c0,4.4-2.5,6.9-5.8,5.8c-1.1,1.2-2.4,1.9-4,1.9c-3.9,0-5.1-2.5-5.9-7.4
				c-0.5-2.7-0.4-11.1-0.2-21.9c0.1-5.8,0.3-10.7,0.5-14.7l0.6-10.3c0.5-7.2,0.4-12.4,6.7-12.4c1.8,0,2.8,0.3,3.9,1
				c0.5-0.2,1.1-0.3,1.6-0.3c2.9,0,5.4,2.3,5.4,5.6c0,1.3-0.3,1.8-0.7,2.8c-0.3,1.7-0.6,9.5-0.7,12.2l0.1-0.1c2.1-2.4,4-5,5.8-7.6
				c3.5-5.2,7-9.5,10.7-9.5c3.1,0,5.5,2.2,5.5,5.4c0,2.7-1,3.7-3.6,5.8c-0.6,0.4-1.8,1.9-3.3,4.3
				C226.5,371.8,224.8,373.8,217.8,381.8z"/>
		</g>
	</g>
</g>
<g class="st0">
	<rect x="301.6" y="25" class="st7" width="274.7" height="140.4"/>
	<g class="st2">
		<path class="st3" d="M539.4,74.4l-0.9-0.5c-2.2-1.4-8.2-4.2-9.8-5c-1.7-0.8-3.3-0.5-4.4,0.3c-1.4,1-2.1,2.9-2.1,4.8
			c0,0.6,0.1,0.8,0.1,2.5c0,0.8,0,1.5-0.1,2.3c-0.1,1,0,1.9,0.1,2.8c0.1,0.5,0.1,0.9,0.1,1.3c0,0.7,0.1,1.3,0.2,1.8l0.1,0.3l0,0.5
			c0,0.6,0.2,1.3,0.6,1.7c0.5,0.7,1.3,1.1,2.2,1.1c0.6,0,1.2-0.2,1.7-0.6c0.7-0.5,3.1-2.4,3.5-1.5c0.4,0.8,1.1,2.4,2.1,4.7
			c1,2.4,1.9,4.5,2.7,6.1c0.8,1.5,1.2,2.6,1.4,3.2c0.5,1.5,1.6,3.5,2.8,4.7c0.4,0.4,0.7,0.6,1,0.8l0.6,0.4c0.7,0.4,1.3,0.4,2.1,0.3
			c0.5-0.1,0.9-0.4,1.2-0.7c0.7-0.7,1-1.7,0.7-2.7c-0.2-0.5-0.4-0.9-0.7-1.2c-0.2-0.2-0.4-0.3-0.6-0.4l-0.5-0.3
			c-0.2-0.2-0.3-0.4-0.5-0.7c-0.4-0.7-0.7-1.2-0.9-1.7c-0.3-0.9-0.9-2.2-1.8-3.9l-0.2-0.4c0.3-0.1,0.5-0.2,0.7-0.3
			c0.2-0.1,0.4-0.3,0.5-0.4c0.9-0.9,1.1-2.3,0.5-3.4l-0.3-0.5c-0.2-0.4-0.4-0.8-0.7-1.1c-0.2-0.2-0.4-0.5-0.6-1
			c-0.3-0.5-3.7-4.7-3.7-4.7s2-1.3,2.9-2c0.9-0.7,1.3-2,0.9-3.1c0.4-0.9,0.2-2.1-0.3-2.8C539.9,74.7,539.7,74.5,539.4,74.4z"/>
		<g>
			<path class="st3" d="M415.3,143.5c-5,0-8.2-4.2-8.2-10.8c0-6.8,3.3-11.2,8.3-11.2c4.1,0,6.8,2.7,7.3,7.1h-2.2
				c-0.6-3.3-2.3-5-5.1-5c-3.7,0-6.1,3.5-6.1,8.9c0,5.4,2.3,8.9,5.9,8.9c3,0,5-2.2,5.4-5.9h2.2C422.3,140.2,419.6,143.5,415.3,143.5
				z"/>
			<path class="st3" d="M434,143.6c-5,0-8.2-4.2-8.2-10.8c0-6.6,3.4-11.2,8.1-11.2c5.3,0,7.8,5.1,7.8,10.8v0.7H428
				c0,4.4,1.7,8.4,6,8.4c2.8,0,4.7-1.9,5.4-5.5h2.1C440.8,140.6,438.1,143.6,434,143.6z M433.9,123.6c-3.9,0-5.4,3.5-5.9,7.4h11.6
				C439.3,126.4,437.2,123.6,433.9,123.6z"/>
			<path class="st3" d="M447.7,126.1c1.3-3.1,3.4-4.6,6.4-4.6c4.8,0,8,4.4,8,11.1c0,6.6-3.2,10.9-8,10.9c-2.9,0-5.1-1.5-6.3-4.5
				v11.6h-2.1v-28.5h2V126.1z M447.7,132.5c0,5.5,2.4,8.8,6.1,8.8c3.6,0,6-3.5,6-8.8c0-5.5-2.4-9-6.1-9
				C450,123.6,447.7,127,447.7,132.5z"/>
			<path class="st3" d="M474.6,142.9h-8.3v-20.8h8.3c3.6,0,5.7,1.7,5.7,4.9c0,2.5-1.1,4.1-3.1,4.8v0.1c2.4,0.5,3.8,2.2,3.8,5.2
				C481,140.8,478.8,142.9,474.6,142.9z M474.4,124.2h-5.9v6.8h5.9c2.5,0,3.8-1.3,3.8-3.4C478.2,125.4,476.9,124.2,474.4,124.2z
				 M474.4,133h-5.9v7.7h5.9c3,0,4.5-1.3,4.5-4C478.9,134.4,477.4,133,474.4,133z"/>
			<path class="st3" d="M497.5,142.9v-17.8l-9.6,17.8h-2.7v-20.8h2.2v17.8l9.6-17.8h2.7v20.8H497.5z"/>
			<path class="st3" d="M512,143.5c-5,0-8.2-4.2-8.2-10.8c0-6.8,3.3-11.2,8.3-11.2c4.1,0,6.8,2.7,7.3,7.1h-2.2c-0.6-3.3-2.3-5-5.1-5
				c-3.7,0-6.1,3.5-6.1,8.9c0,5.4,2.3,8.9,5.9,8.9c3,0,5-2.2,5.4-5.9h2.2C519,140.2,516.3,143.5,512,143.5z"/>
		</g>
		<g>
			<path class="st3" d="M353.1,78.8c6.9,13.4,10.5,19.8,14.2,24.7c2.1,1.4,2.9,2.8,2.9,4.9c0,2.8-2.6,5.5-5.7,5.5
				c-4.9,0-7.9-6.2-16.5-20.4c0,3.3,0.4,6.9,0.4,9.7c0,4.4-2.5,6.9-5.8,5.8c-1.1,1.2-2.4,1.9-4,1.9c-3.9,0-5.1-2.5-5.9-7.4
				c-0.5-2.7-0.4-11.1-0.2-21.9c0.1-5.8,0.3-10.7,0.5-14.7l0.6-10.3c0.5-7.2,0.4-12.4,6.7-12.4c1.8,0,2.8,0.3,3.9,1
				c0.5-0.2,1.1-0.3,1.6-0.3c2.9,0,5.4,2.3,5.4,5.6c0,1.3-0.3,1.8-0.7,2.8c-0.3,1.7-0.6,9.5-0.7,12.2l0.1-0.1c2.1-2.4,4-5,5.8-7.6
				c3.5-5.2,7-9.5,10.7-9.5c3.1,0,5.5,2.2,5.5,5.4c0,2.7-1,3.7-3.6,5.8c-0.6,0.4-1.8,1.9-3.3,4.3C361.9,68.8,360.1,70.8,353.1,78.8z
				"/>
			<path class="st3" d="M418.2,47.8c1.1,1.2,1.6,2.4,1.6,4v0.4l0.3,1.3c0.3,1.3,0.9,5,1.7,10.9c0.8,6,1.2,11.6,1.1,16.8l-0.1,10.4
				c0,2.5-0.4,4.9-1,7.2c-0.5,2.1-1.1,3.7-1.6,4.9c-0.5,1.3-1.1,2.5-1.5,3.4l-0.5,0.9c-0.6,1.1-1.4,1.9-2.6,2.3
				c-0.7,0.3-1.4,0.4-2.2,0.4c-0.4,0-0.9-0.1-1.3-0.2c-0.4,0.2-0.8,0.3-1.3,0.3c-1.5,0.1-2.8-0.4-4-1.3c-1.2-1-1.9-2.2-2-3.8
				l-0.1-0.6c0-0.7,0.1-1.7,0.2-2.9c0.1-1,0.4-2.3,0.6-4c0.3-1.2,0.4-2.4,0.5-3.6c0.1-1.2,0.2-3.1,0.2-5.8c0-2.9-0.1-6.6-0.2-11.2
				c-0.1-4.5-0.3-8.1-0.5-10.7c-0.2-2.4-0.5-4.8-1.1-6.9l-0.4-2l-2.9,0.3c0.1,0.6,0.1,1.2,0.1,1.7c0.1,0.8,0.1,1.8,0.1,2.9v7.8
				c0,1.9-0.1,4.4-0.2,7.6c-0.1,3.3-0.5,7.2-1.3,11.5c-0.9,4.6-2,8-3.1,10.4c-1.2,2.2-2.2,4-3.3,5.5c-1,1.3-2.2,2.2-3.3,3
				c-1.4,0.7-2.8,1.1-4.2,1.1c-1.2,0-3-0.2-4-0.4l-1.6-0.3l-0.8-0.2c-1.5-0.4-2.6-1.2-3.4-2.5c-0.6-0.9-0.9-1.8-0.9-2.9
				c0-2.1,0.9-3.6,2.6-4.7c0.9-0.6,1.9-0.9,2.9-0.9c0.4,0,0.8,0.1,1.3,0.2l0.9,0.2c0.4,0.1,0.7,0.2,1.1,0.2c1.2,0,2.3-0.8,3.1-3.3
				c0.4-1.5,1.4-4,2.1-7.5c0.7-3.7,1.2-6.9,1.3-9.7l0.1-7.3V63c0-1,0-1.8-0.1-2.4c0-0.6,0-1.3-0.1-2c-0.1-1-0.2-1.9-0.2-2.7
				c0-1,0.1-2,0.3-2.8c0.7-2.7,2.7-4.4,5.8-5l3.4-0.6c1.7-0.4,4.9-0.5,5.9-0.5c1,0,1.9,0.1,2.8,0.3c0.8,0.1,1.5,0.4,2.2,0.8
				c1.2-1.2,2.5-1.8,4-1.8S417.1,46.7,418.2,47.8z"/>
			<path class="st3" d="M466.3,44c1.1,1.1,1.6,2.3,1.6,3.9v2.8c0,1.5,0.2,3,0.4,4.5l2.1,8.6c1.1,4.4,1.6,8.3,1.7,11.8
				c0.1,1.3,0.1,2.6,0.1,4c0,2.1-0.1,4.4-0.2,6.8c-0.2,4.6-0.8,8.1-1.8,10.3c-0.6,1.4-1.2,3.1-1.7,4.9c-0.6,2.2-1.2,3.9-1.6,4.9
				l-0.6,1.4c-0.2,0.5-0.4,1.1-0.9,1.5c-0.4,1.3-1.3,2.3-2.4,3.1c-0.9,0.5-1.9,0.8-2.8,0.8c-2,0-3.5-0.9-4.6-2.4c-0.7-0.9-1-2-1-3
				c0-0.4,0-0.8,0.1-1.2l0.1-0.7l0.2-1.6l0.2-3.2c0.1-1,0.1-2.4,0.1-4.2l-0.1-8.3v-5.2l-0.2,0.4c-1.7,4.5-3.5,8.4-5.5,11.7
				c-1.2,2-2.2,3.6-3.1,4.8c-1,1.2-2.1,2.2-3.4,3c-0.3,0.2-0.9,0.4-1.9,0.5c-0.8,0.2-1.8,0.3-2.9,0.3c-1.5,0-2.9-0.4-4-1.5
				c-1-0.9-1.5-2.3-1.6-4.2c0.1-0.9-0.1-3.1-0.4-6.8c-0.3-3.9-0.4-9.4-0.4-16.6c0-7.1,0-12.1,0.1-14.8c0.1-3.3,0.4-5.8,1-7.3
				l0.5-1.3c0.6-1.4,1.6-2.4,3.1-3.1c0.7-0.4,1.4-0.4,2.2-0.4c0.7,0,1.3,0.1,2.1,0.4c1.3,0.5,2.3,1.5,3,2.9c0.4,0.8,0.4,1.5,0.4,2.2
				s-0.1,1.3-0.4,2.1l-0.5,1.3c-0.1,0.6-0.2,1.9-0.3,3.6c-0.1,2.6-0.1,7.4-0.1,14.5c0,3.3,0,6.4,0.1,9.1l1.6-4
				c1.4-3.9,2.6-8.5,3.6-13.8c1-5.7,1.7-9.4,2.1-11l0.7-3.5c0.1-0.7,0.2-1.3,0.2-1.9l-0.2-0.3c-0.1-0.1-0.2-0.4-0.3-0.7
				c-0.1-0.3,0-0.6,0.1-1c0.1-0.4,0.4-0.8,1-1.4c0.5-0.5,1.3-1.1,2.3-1.6c1.8-1,3.3-1.4,4.6-1.3c1.1-0.9,2.2-1.3,3.6-1.3
				C463.9,42.4,465.2,43,466.3,44z"/>
			<path class="st3" d="M500.8,78.8c6.9,13.4,10.5,19.8,14.2,24.7c2.1,1.4,2.9,2.8,2.9,4.9c0,2.8-2.6,5.5-5.7,5.5
				c-4.9,0-7.9-6.2-16.5-20.4c0,3.3,0.4,6.9,0.4,9.7c0,4.4-2.5,6.9-5.8,5.8c-1.1,1.2-2.4,1.9-4,1.9c-3.9,0-5.1-2.5-5.9-7.4
				c-0.5-2.7-0.4-11.1-0.2-21.9c0.1-5.8,0.3-10.7,0.5-14.7l0.6-10.3c0.5-7.2,0.4-12.4,6.7-12.4c1.8,0,2.8,0.3,3.9,1
				c0.5-0.2,1.1-0.3,1.6-0.3c2.9,0,5.4,2.3,5.4,5.6c0,1.3-0.3,1.8-0.7,2.8c-0.3,1.7-0.6,9.5-0.7,12.2l0.1-0.1c2.1-2.4,4-5,5.8-7.6
				c3.5-5.2,7-9.5,10.7-9.5c3.1,0,5.5,2.2,5.5,5.4c0,2.7-1,3.7-3.6,5.8c-0.6,0.4-1.8,1.9-3.3,4.3C509.6,68.8,507.9,70.8,500.8,78.8z
				"/>
		</g>
	</g>
</g>
<g class="st0">
	<rect x="301.6" y="176.5" class="st8" width="274.7" height="140.4"/>
	<g class="st2">
		<path class="st3" d="M539.4,225.9l-0.9-0.5c-2.2-1.4-8.2-4.2-9.8-5c-1.7-0.8-3.3-0.5-4.4,0.3c-1.4,1-2.1,2.9-2.1,4.8
			c0,0.6,0.1,0.8,0.1,2.5c0,0.8,0,1.5-0.1,2.3c-0.1,1,0,1.9,0.1,2.8c0.1,0.5,0.1,0.9,0.1,1.3c0,0.7,0.1,1.3,0.2,1.8l0.1,0.3l0,0.5
			c0,0.6,0.2,1.3,0.6,1.7c0.5,0.7,1.3,1.1,2.2,1.1c0.6,0,1.2-0.2,1.7-0.6c0.7-0.5,3.1-2.4,3.5-1.5c0.4,0.8,1.1,2.4,2.1,4.7
			c1,2.4,1.9,4.5,2.7,6.1c0.8,1.5,1.2,2.6,1.4,3.2c0.5,1.5,1.6,3.5,2.8,4.7c0.4,0.4,0.7,0.6,1,0.8l0.6,0.4c0.7,0.4,1.3,0.4,2.1,0.3
			c0.5-0.1,0.9-0.4,1.2-0.7c0.7-0.7,1-1.7,0.7-2.7c-0.2-0.5-0.4-0.9-0.7-1.2c-0.2-0.2-0.4-0.3-0.6-0.4l-0.5-0.3
			c-0.2-0.2-0.3-0.4-0.5-0.7c-0.4-0.7-0.7-1.2-0.9-1.7c-0.3-0.9-0.9-2.2-1.8-3.9l-0.2-0.4c0.3-0.1,0.5-0.2,0.7-0.3
			c0.2-0.1,0.4-0.3,0.5-0.4c0.9-0.9,1.1-2.3,0.5-3.4l-0.3-0.5c-0.2-0.4-0.4-0.8-0.7-1.1c-0.2-0.2-0.4-0.5-0.6-1
			c-0.3-0.5-3.7-4.7-3.7-4.7s2-1.3,2.9-2c0.9-0.7,1.3-2,0.9-3.1c0.4-0.9,0.2-2.1-0.3-2.8C539.9,226.3,539.7,226,539.4,225.9z"/>
		<g>
			<path class="st3" d="M415.3,295c-5,0-8.2-4.2-8.2-10.8c0-6.8,3.3-11.2,8.3-11.2c4.1,0,6.8,2.7,7.3,7.1h-2.2c-0.6-3.3-2.3-5-5.1-5
				c-3.7,0-6.1,3.5-6.1,8.9c0,5.4,2.3,8.9,5.9,8.9c3,0,5-2.2,5.4-5.9h2.2C422.3,291.7,419.6,295,415.3,295z"/>
			<path class="st3" d="M434,295.1c-5,0-8.2-4.2-8.2-10.8c0-6.6,3.4-11.2,8.1-11.2c5.3,0,7.8,5.1,7.8,10.8v0.7H428
				c0,4.4,1.7,8.4,6,8.4c2.8,0,4.7-1.9,5.4-5.5h2.1C440.8,292.2,438.1,295.1,434,295.1z M433.9,275.1c-3.9,0-5.4,3.5-5.9,7.4h11.6
				C439.3,277.9,437.2,275.1,433.9,275.1z"/>
			<path class="st3" d="M447.7,277.6c1.3-3.1,3.4-4.6,6.4-4.6c4.8,0,8,4.4,8,11.1c0,6.6-3.2,10.9-8,10.9c-2.9,0-5.1-1.5-6.3-4.5
				v11.6h-2.1v-28.5h2V277.6z M447.7,284c0,5.5,2.4,8.8,6.1,8.8c3.6,0,6-3.5,6-8.8c0-5.5-2.4-9-6.1-9
				C450,275.1,447.7,278.5,447.7,284z"/>
			<path class="st3" d="M474.6,294.4h-8.3v-20.8h8.3c3.6,0,5.7,1.7,5.7,4.9c0,2.5-1.1,4.1-3.1,4.8v0.1c2.4,0.5,3.8,2.2,3.8,5.2
				C481,292.3,478.8,294.4,474.6,294.4z M474.4,275.8h-5.9v6.8h5.9c2.5,0,3.8-1.3,3.8-3.4C478.2,276.9,476.9,275.8,474.4,275.8z
				 M474.4,284.5h-5.9v7.7h5.9c3,0,4.5-1.3,4.5-4C478.9,285.9,477.4,284.5,474.4,284.5z"/>
			<path class="st3" d="M497.5,294.4v-17.8l-9.6,17.8h-2.7v-20.8h2.2v17.8l9.6-17.8h2.7v20.8H497.5z"/>
			<path class="st3" d="M512,295c-5,0-8.2-4.2-8.2-10.8c0-6.8,3.3-11.2,8.3-11.2c4.1,0,6.8,2.7,7.3,7.1h-2.2c-0.6-3.3-2.3-5-5.1-5
				c-3.7,0-6.1,3.5-6.1,8.9c0,5.4,2.3,8.9,5.9,8.9c3,0,5-2.2,5.4-5.9h2.2C519,291.7,516.3,295,512,295z"/>
		</g>
		<g>
			<path class="st3" d="M353.1,230.3c6.9,13.4,10.5,19.8,14.2,24.7c2.1,1.4,2.9,2.8,2.9,4.9c0,2.8-2.6,5.5-5.7,5.5
				c-4.9,0-7.9-6.2-16.5-20.4c0,3.3,0.4,6.9,0.4,9.7c0,4.4-2.5,6.9-5.8,5.8c-1.1,1.2-2.4,1.9-4,1.9c-3.9,0-5.1-2.5-5.9-7.4
				c-0.5-2.7-0.4-11.1-0.2-21.9c0.1-5.8,0.3-10.7,0.5-14.7l0.6-10.3c0.5-7.2,0.4-12.4,6.7-12.4c1.8,0,2.8,0.3,3.9,1
				c0.5-0.2,1.1-0.3,1.6-0.3c2.9,0,5.4,2.3,5.4,5.6c0,1.3-0.3,1.8-0.7,2.8c-0.3,1.7-0.6,9.5-0.7,12.2l0.1-0.1c2.1-2.4,4-5,5.8-7.6
				c3.5-5.2,7-9.5,10.7-9.5c3.1,0,5.5,2.2,5.5,5.4c0,2.7-1,3.7-3.6,5.8c-0.6,0.4-1.8,1.9-3.3,4.3
				C361.9,220.3,360.1,222.3,353.1,230.3z"/>
			<path class="st3" d="M418.2,199.3c1.1,1.2,1.6,2.4,1.6,4v0.4l0.3,1.3c0.3,1.3,0.9,5,1.7,10.9c0.8,6,1.2,11.6,1.1,16.8l-0.1,10.4
				c0,2.5-0.4,4.9-1,7.2c-0.5,2.1-1.1,3.7-1.6,4.9c-0.5,1.3-1.1,2.5-1.5,3.4l-0.5,0.9c-0.6,1.1-1.4,1.9-2.6,2.3
				c-0.7,0.3-1.4,0.4-2.2,0.4c-0.4,0-0.9-0.1-1.3-0.2c-0.4,0.2-0.8,0.3-1.3,0.3c-1.5,0.1-2.8-0.4-4-1.3c-1.2-1-1.9-2.2-2-3.8
				l-0.1-0.6c0-0.7,0.1-1.7,0.2-2.9c0.1-1,0.4-2.3,0.6-4c0.3-1.2,0.4-2.4,0.5-3.6c0.1-1.2,0.2-3.1,0.2-5.8c0-2.9-0.1-6.6-0.2-11.2
				c-0.1-4.5-0.3-8.1-0.5-10.7c-0.2-2.4-0.5-4.8-1.1-6.9l-0.4-2l-2.9,0.3c0.1,0.6,0.1,1.2,0.1,1.7c0.1,0.8,0.1,1.8,0.1,2.9v7.8
				c0,1.9-0.1,4.4-0.2,7.6c-0.1,3.3-0.5,7.2-1.3,11.5c-0.9,4.6-2,8-3.1,10.4c-1.2,2.2-2.2,4-3.3,5.5c-1,1.3-2.2,2.2-3.3,3
				c-1.4,0.7-2.8,1.1-4.2,1.1c-1.2,0-3-0.2-4-0.4l-1.6-0.3l-0.8-0.2c-1.5-0.4-2.6-1.2-3.4-2.5c-0.6-0.9-0.9-1.8-0.9-2.9
				c0-2.1,0.9-3.6,2.6-4.7c0.9-0.6,1.9-0.9,2.9-0.9c0.4,0,0.8,0.1,1.3,0.2l0.9,0.2c0.4,0.1,0.7,0.2,1.1,0.2c1.2,0,2.3-0.8,3.1-3.3
				c0.4-1.5,1.4-4,2.1-7.5c0.7-3.7,1.2-6.9,1.3-9.7l0.1-7.3v-7.8c0-1,0-1.8-0.1-2.4c0-0.6,0-1.3-0.1-2c-0.1-1-0.2-1.9-0.2-2.7
				c0-1,0.1-2,0.3-2.8c0.7-2.7,2.7-4.4,5.8-5l3.4-0.6c1.7-0.4,4.9-0.5,5.9-0.5c1,0,1.9,0.1,2.8,0.3c0.8,0.1,1.5,0.4,2.2,0.8
				c1.2-1.2,2.5-1.8,4-1.8S417.1,198.3,418.2,199.3z"/>
			<path class="st3" d="M466.3,195.6c1.1,1.1,1.6,2.3,1.6,3.9v2.8c0,1.5,0.2,3,0.4,4.5l2.1,8.6c1.1,4.4,1.6,8.3,1.7,11.8
				c0.1,1.3,0.1,2.6,0.1,4c0,2.1-0.1,4.4-0.2,6.8c-0.2,4.6-0.8,8.1-1.8,10.3c-0.6,1.4-1.2,3.1-1.7,4.9c-0.6,2.2-1.2,3.9-1.6,4.9
				l-0.6,1.4c-0.2,0.5-0.4,1.1-0.9,1.5c-0.4,1.3-1.3,2.3-2.4,3.1c-0.9,0.5-1.9,0.8-2.8,0.8c-2,0-3.5-0.9-4.6-2.4c-0.7-0.9-1-2-1-3
				c0-0.4,0-0.8,0.1-1.2l0.1-0.7l0.2-1.6l0.2-3.2c0.1-1,0.1-2.4,0.1-4.2l-0.1-8.3v-5.2l-0.2,0.4c-1.7,4.5-3.5,8.4-5.5,11.7
				c-1.2,2-2.2,3.6-3.1,4.8c-1,1.2-2.1,2.2-3.4,3c-0.3,0.2-0.9,0.4-1.9,0.5c-0.8,0.2-1.8,0.3-2.9,0.3c-1.5,0-2.9-0.4-4-1.5
				c-1-0.9-1.5-2.3-1.6-4.2c0.1-0.9-0.1-3.1-0.4-6.8c-0.3-3.9-0.4-9.4-0.4-16.6c0-7.1,0-12.1,0.1-14.8c0.1-3.3,0.4-5.8,1-7.3
				l0.5-1.3c0.6-1.4,1.6-2.4,3.1-3.1c0.7-0.4,1.4-0.4,2.2-0.4c0.7,0,1.3,0.1,2.1,0.4c1.3,0.5,2.3,1.5,3,2.9c0.4,0.8,0.4,1.5,0.4,2.2
				s-0.1,1.3-0.4,2.1l-0.5,1.3c-0.1,0.6-0.2,1.9-0.3,3.6c-0.1,2.6-0.1,7.4-0.1,14.5c0,3.3,0,6.4,0.1,9.1l1.6-4
				c1.4-3.9,2.6-8.5,3.6-13.8c1-5.7,1.7-9.4,2.1-11l0.7-3.5c0.1-0.7,0.2-1.3,0.2-1.9l-0.2-0.3c-0.1-0.1-0.2-0.4-0.3-0.7
				c-0.1-0.3,0-0.6,0.1-1c0.1-0.4,0.4-0.8,1-1.4c0.5-0.5,1.3-1.1,2.3-1.6c1.8-1,3.3-1.4,4.6-1.3c1.1-0.9,2.2-1.3,3.6-1.3
				C463.9,193.9,465.2,194.5,466.3,195.6z"/>
			<path class="st3" d="M500.8,230.3c6.9,13.4,10.5,19.8,14.2,24.7c2.1,1.4,2.9,2.8,2.9,4.9c0,2.8-2.6,5.5-5.7,5.5
				c-4.9,0-7.9-6.2-16.5-20.4c0,3.3,0.4,6.9,0.4,9.7c0,4.4-2.5,6.9-5.8,5.8c-1.1,1.2-2.4,1.9-4,1.9c-3.9,0-5.1-2.5-5.9-7.4
				c-0.5-2.7-0.4-11.1-0.2-21.9c0.1-5.8,0.3-10.7,0.5-14.7l0.6-10.3c0.5-7.2,0.4-12.4,6.7-12.4c1.8,0,2.8,0.3,3.9,1
				c0.5-0.2,1.1-0.3,1.6-0.3c2.9,0,5.4,2.3,5.4,5.6c0,1.3-0.3,1.8-0.7,2.8c-0.3,1.7-0.6,9.5-0.7,12.2l0.1-0.1c2.1-2.4,4-5,5.8-7.6
				c3.5-5.2,7-9.5,10.7-9.5c3.1,0,5.5,2.2,5.5,5.4c0,2.7-1,3.7-3.6,5.8c-0.6,0.4-1.8,1.9-3.3,4.3
				C509.6,220.3,507.9,222.3,500.8,230.3z"/>
		</g>
	</g>
</g>
<g class="st0">
	<rect x="301.6" y="328" class="st9" width="274.7" height="140.4"/>
	<g class="st2">
		<path class="st3" d="M539.4,377.4l-0.9-0.5c-2.2-1.4-8.2-4.2-9.8-5c-1.7-0.8-3.3-0.5-4.4,0.3c-1.4,1-2.1,2.9-2.1,4.8
			c0,0.6,0.1,0.8,0.1,2.5c0,0.8,0,1.5-0.1,2.3c-0.1,1,0,1.9,0.1,2.8c0.1,0.5,0.1,0.9,0.1,1.3c0,0.7,0.1,1.3,0.2,1.8l0.1,0.3l0,0.5
			c0,0.6,0.2,1.3,0.6,1.7c0.5,0.7,1.3,1.1,2.2,1.1c0.6,0,1.2-0.2,1.7-0.6c0.7-0.5,3.1-2.4,3.5-1.5c0.4,0.8,1.1,2.4,2.1,4.7
			c1,2.4,1.9,4.5,2.7,6.1c0.8,1.5,1.2,2.6,1.4,3.2c0.5,1.5,1.6,3.5,2.8,4.7c0.4,0.4,0.7,0.6,1,0.8l0.6,0.4c0.7,0.4,1.3,0.4,2.1,0.3
			c0.5-0.1,0.9-0.4,1.2-0.7c0.7-0.7,1-1.7,0.7-2.7c-0.2-0.5-0.4-0.9-0.7-1.2c-0.2-0.2-0.4-0.3-0.6-0.4l-0.5-0.3
			c-0.2-0.2-0.3-0.4-0.5-0.7c-0.4-0.7-0.7-1.2-0.9-1.7c-0.3-0.9-0.9-2.2-1.8-3.9l-0.2-0.4c0.3-0.1,0.5-0.2,0.7-0.3
			c0.2-0.1,0.4-0.3,0.5-0.4c0.9-0.9,1.1-2.3,0.5-3.4l-0.3-0.5c-0.2-0.4-0.4-0.8-0.7-1.1c-0.2-0.2-0.4-0.5-0.6-1
			c-0.3-0.5-3.7-4.7-3.7-4.7s2-1.3,2.9-2c0.9-0.7,1.3-2,0.9-3.1c0.4-0.9,0.2-2.1-0.3-2.8C539.9,377.8,539.7,377.5,539.4,377.4z"/>
		<g>
			<path class="st3" d="M415.3,446.5c-5,0-8.2-4.2-8.2-10.8c0-6.8,3.3-11.2,8.3-11.2c4.1,0,6.8,2.7,7.3,7.1h-2.2
				c-0.6-3.3-2.3-5-5.1-5c-3.7,0-6.1,3.5-6.1,8.9c0,5.4,2.3,8.9,5.9,8.9c3,0,5-2.2,5.4-5.9h2.2C422.3,443.2,419.6,446.5,415.3,446.5
				z"/>
			<path class="st3" d="M434,446.6c-5,0-8.2-4.2-8.2-10.8c0-6.6,3.4-11.2,8.1-11.2c5.3,0,7.8,5.1,7.8,10.8v0.7H428
				c0,4.4,1.7,8.4,6,8.4c2.8,0,4.7-1.9,5.4-5.5h2.1C440.8,443.7,438.1,446.6,434,446.6z M433.9,426.7c-3.9,0-5.4,3.5-5.9,7.4h11.6
				C439.3,429.4,437.2,426.7,433.9,426.7z"/>
			<path class="st3" d="M447.7,429.1c1.3-3.1,3.4-4.6,6.4-4.6c4.8,0,8,4.4,8,11.1c0,6.6-3.2,10.9-8,10.9c-2.9,0-5.1-1.5-6.3-4.5
				v11.6h-2.1v-28.5h2V429.1z M447.7,435.5c0,5.5,2.4,8.8,6.1,8.8c3.6,0,6-3.5,6-8.8c0-5.5-2.4-9-6.1-9
				C450,426.6,447.7,430,447.7,435.5z"/>
			<path class="st3" d="M474.6,445.9h-8.3v-20.8h8.3c3.6,0,5.7,1.7,5.7,4.9c0,2.5-1.1,4.1-3.1,4.8v0.1c2.4,0.5,3.8,2.2,3.8,5.2
				C481,443.8,478.8,445.9,474.6,445.9z M474.4,427.3h-5.9v6.8h5.9c2.5,0,3.8-1.3,3.8-3.4C478.2,428.4,476.9,427.3,474.4,427.3z
				 M474.4,436h-5.9v7.7h5.9c3,0,4.5-1.3,4.5-4C478.9,437.4,477.4,436,474.4,436z"/>
			<path class="st3" d="M497.5,445.9v-17.8l-9.6,17.8h-2.7v-20.8h2.2v17.8l9.6-17.8h2.7v20.8H497.5z"/>
			<path class="st3" d="M512,446.5c-5,0-8.2-4.2-8.2-10.8c0-6.8,3.3-11.2,8.3-11.2c4.1,0,6.8,2.7,7.3,7.1h-2.2c-0.6-3.3-2.3-5-5.1-5
				c-3.7,0-6.1,3.5-6.1,8.9c0,5.4,2.3,8.9,5.9,8.9c3,0,5-2.2,5.4-5.9h2.2C519,443.2,516.3,446.5,512,446.5z"/>
		</g>
		<g>
			<path class="st3" d="M353.1,381.8c6.9,13.4,10.5,19.8,14.2,24.7c2.1,1.4,2.9,2.8,2.9,4.9c0,2.8-2.6,5.5-5.7,5.5
				c-4.9,0-7.9-6.2-16.5-20.4c0,3.3,0.4,6.9,0.4,9.7c0,4.4-2.5,6.9-5.8,5.8c-1.1,1.2-2.4,1.9-4,1.9c-3.9,0-5.1-2.5-5.9-7.4
				c-0.5-2.7-0.4-11.1-0.2-21.9c0.1-5.8,0.3-10.7,0.5-14.7l0.6-10.3c0.5-7.2,0.4-12.4,6.7-12.4c1.8,0,2.8,0.3,3.9,1
				c0.5-0.2,1.1-0.3,1.6-0.3c2.9,0,5.4,2.3,5.4,5.6c0,1.3-0.3,1.8-0.7,2.8c-0.3,1.7-0.6,9.5-0.7,12.2l0.1-0.1c2.1-2.4,4-5,5.8-7.6
				c3.5-5.2,7-9.5,10.7-9.5c3.1,0,5.5,2.2,5.5,5.4c0,2.7-1,3.7-3.6,5.8c-0.6,0.4-1.8,1.9-3.3,4.3
				C361.9,371.8,360.1,373.8,353.1,381.8z"/>
			<path class="st3" d="M418.2,350.8c1.1,1.2,1.6,2.4,1.6,4v0.4l0.3,1.3c0.3,1.3,0.9,5,1.7,10.9c0.8,6,1.2,11.6,1.1,16.8l-0.1,10.4
				c0,2.5-0.4,4.9-1,7.2c-0.5,2.1-1.1,3.7-1.6,4.9c-0.5,1.3-1.1,2.5-1.5,3.4l-0.5,0.9c-0.6,1.1-1.4,1.9-2.6,2.3
				c-0.7,0.3-1.4,0.4-2.2,0.4c-0.4,0-0.9-0.1-1.3-0.2c-0.4,0.2-0.8,0.3-1.3,0.3c-1.5,0.1-2.8-0.4-4-1.3c-1.2-1-1.9-2.2-2-3.8
				l-0.1-0.6c0-0.7,0.1-1.7,0.2-2.9c0.1-1,0.4-2.3,0.6-4c0.3-1.2,0.4-2.4,0.5-3.6c0.1-1.2,0.2-3.1,0.2-5.8c0-2.9-0.1-6.6-0.2-11.2
				c-0.1-4.5-0.3-8.1-0.5-10.7c-0.2-2.4-0.5-4.8-1.1-6.9l-0.4-2l-2.9,0.3c0.1,0.6,0.1,1.2,0.1,1.7c0.1,0.8,0.1,1.8,0.1,2.9v7.8
				c0,1.9-0.1,4.4-0.2,7.6c-0.1,3.3-0.5,7.2-1.3,11.5c-0.9,4.6-2,8-3.1,10.4c-1.2,2.2-2.2,4-3.3,5.5c-1,1.3-2.2,2.2-3.3,3
				c-1.4,0.7-2.8,1.1-4.2,1.1c-1.2,0-3-0.2-4-0.4l-1.6-0.3l-0.8-0.2c-1.5-0.4-2.6-1.2-3.4-2.5c-0.6-0.9-0.9-1.8-0.9-2.9
				c0-2.1,0.9-3.6,2.6-4.7c0.9-0.6,1.9-0.9,2.9-0.9c0.4,0,0.8,0.1,1.3,0.2l0.9,0.2c0.4,0.1,0.7,0.2,1.1,0.2c1.2,0,2.3-0.8,3.1-3.3
				c0.4-1.5,1.4-4,2.1-7.5c0.7-3.7,1.2-6.9,1.3-9.7l0.1-7.3V366c0-1,0-1.8-0.1-2.4c0-0.6,0-1.3-0.1-2c-0.1-1-0.2-1.9-0.2-2.7
				c0-1,0.1-2,0.3-2.8c0.7-2.7,2.7-4.4,5.8-5l3.4-0.6c1.7-0.4,4.9-0.5,5.9-0.5c1,0,1.9,0.1,2.8,0.3c0.8,0.1,1.5,0.4,2.2,0.8
				c1.2-1.2,2.5-1.8,4-1.8S417.1,349.8,418.2,350.8z"/>
			<path class="st3" d="M466.3,347.1c1.1,1.1,1.6,2.3,1.6,3.9v2.8c0,1.5,0.2,3,0.4,4.5l2.1,8.6c1.1,4.4,1.6,8.3,1.7,11.8
				c0.1,1.3,0.1,2.6,0.1,4c0,2.1-0.1,4.4-0.2,6.8c-0.2,4.6-0.8,8.1-1.8,10.3c-0.6,1.4-1.2,3.1-1.7,4.9c-0.6,2.2-1.2,3.9-1.6,4.9
				l-0.6,1.4c-0.2,0.5-0.4,1.1-0.9,1.5c-0.4,1.3-1.3,2.3-2.4,3.1c-0.9,0.5-1.9,0.8-2.8,0.8c-2,0-3.5-0.9-4.6-2.4c-0.7-0.9-1-2-1-3
				c0-0.4,0-0.8,0.1-1.2l0.1-0.7l0.2-1.6l0.2-3.2c0.1-1,0.1-2.4,0.1-4.2l-0.1-8.3v-5.2l-0.2,0.4c-1.7,4.5-3.5,8.4-5.5,11.7
				c-1.2,2-2.2,3.6-3.1,4.8c-1,1.2-2.1,2.2-3.4,3c-0.3,0.2-0.9,0.4-1.9,0.5c-0.8,0.2-1.8,0.3-2.9,0.3c-1.5,0-2.9-0.4-4-1.5
				c-1-0.9-1.5-2.3-1.6-4.2c0.1-0.9-0.1-3.1-0.4-6.8c-0.3-3.9-0.4-9.4-0.4-16.6c0-7.1,0-12.1,0.1-14.8c0.1-3.3,0.4-5.8,1-7.3
				l0.5-1.3c0.6-1.4,1.6-2.4,3.1-3.1c0.7-0.4,1.4-0.4,2.2-0.4c0.7,0,1.3,0.1,2.1,0.4c1.3,0.5,2.3,1.5,3,2.9c0.4,0.8,0.4,1.5,0.4,2.2
				c0,0.7-0.1,1.3-0.4,2.1l-0.5,1.3c-0.1,0.6-0.2,1.9-0.3,3.6c-0.1,2.6-0.1,7.4-0.1,14.5c0,3.3,0,6.4,0.1,9.1l1.6-4
				c1.4-3.9,2.6-8.5,3.6-13.8c1-5.7,1.7-9.4,2.1-11l0.7-3.5c0.1-0.7,0.2-1.3,0.2-1.9l-0.2-0.3c-0.1-0.1-0.2-0.4-0.3-0.7
				c-0.1-0.3,0-0.6,0.1-1c0.1-0.4,0.4-0.8,1-1.4c0.5-0.5,1.3-1.1,2.3-1.6c1.8-1,3.3-1.4,4.6-1.3c1.1-0.9,2.2-1.3,3.6-1.3
				C463.9,345.4,465.2,346,466.3,347.1z"/>
			<path class="st3" d="M500.8,381.8c6.9,13.4,10.5,19.8,14.2,24.7c2.1,1.4,2.9,2.8,2.9,4.9c0,2.8-2.6,5.5-5.7,5.5
				c-4.9,0-7.9-6.2-16.5-20.4c0,3.3,0.4,6.9,0.4,9.7c0,4.4-2.5,6.9-5.8,5.8c-1.1,1.2-2.4,1.9-4,1.9c-3.9,0-5.1-2.5-5.9-7.4
				c-0.5-2.7-0.4-11.1-0.2-21.9c0.1-5.8,0.3-10.7,0.5-14.7l0.6-10.3c0.5-7.2,0.4-12.4,6.7-12.4c1.8,0,2.8,0.3,3.9,1
				c0.5-0.2,1.1-0.3,1.6-0.3c2.9,0,5.4,2.3,5.4,5.6c0,1.3-0.3,1.8-0.7,2.8c-0.3,1.7-0.6,9.5-0.7,12.2l0.1-0.1c2.1-2.4,4-5,5.8-7.6
				c3.5-5.2,7-9.5,10.7-9.5c3.1,0,5.5,2.2,5.5,5.4c0,2.7-1,3.7-3.6,5.8c-0.6,0.4-1.8,1.9-3.3,4.3
				C509.6,371.8,507.9,373.8,500.8,381.8z"/>
		</g>
	</g>
</g>
</svg>
